<svg width="20" height="20" viewBox="0 0 20 20" fill="none" xmlns="http://www.w3.org/2000/svg">
<path d="M2.252 8C2.08401 8.65337 1.99934 9.32537 2 10C2 10.69 2.088 11.36 2.252 12H5.1C4.96633 10.67 4.96633 9.32998 5.1 8H2.252ZM3.07 6H5.416C5.682 4.783 6.066 3.693 6.537 2.786C5.08536 3.48568 3.87746 4.60543 3.07 6ZM17.748 8H14.9C15.0337 9.32998 15.0337 10.67 14.9 12H17.748C18.0845 10.6879 18.0845 9.3121 17.748 8ZM16.93 6C16.1225 4.60543 14.9146 3.48568 13.463 2.786C13.935 3.693 14.318 4.783 14.584 6H16.93ZM7.112 8C7.03757 8.66407 7.00018 9.33177 7 10C7 10.685 7.038 11.355 7.112 12H12.888C13.0383 10.6709 13.0383 9.3291 12.888 8H7.112ZM7.47 6H12.53C12.3477 5.24839 12.0852 4.51854 11.747 3.823C11.119 2.568 10.447 2 10 2C9.553 2 8.881 2.568 8.253 3.823C7.938 4.455 7.673 5.19 7.47 6ZM3.07 14C3.87746 15.3946 5.08536 16.5143 6.537 17.214C6.065 16.307 5.682 15.217 5.416 14H3.07ZM16.93 14H14.584C14.318 15.217 13.934 16.307 13.463 17.214C14.9146 16.5143 16.1225 15.3946 16.93 14ZM7.47 14C7.673 14.81 7.938 15.545 8.253 16.177C8.881 17.432 9.553 18 10 18C10.447 18 11.119 17.432 11.747 16.177C12.062 15.545 12.327 14.81 12.53 14H7.47ZM10 20C4.477 20 0 15.523 0 10C0 4.477 4.477 0 10 0C15.523 0 20 4.477 20 10C20 15.523 15.523 20 10 20Z" fill="black"/>
</svg>
