<svg width="21" height="23" viewBox="0 0 21 23" fill="none" xmlns="http://www.w3.org/2000/svg">
<path d="M19.0706 11.4604C19.1093 11.407 19.1494 11.3536 19.1854 11.3001C20.5211 9.35943 20.8537 7.55094 20.1191 6.20593C19.3845 4.86226 17.6815 4.16371 15.328 4.23985C15.1424 4.24519 14.9541 4.25855 14.7644 4.27324C14.6869 4.0996 14.6068 3.92731 14.524 3.76169C13.4621 1.65802 12.033 0.5 10.501 0.5C8.96898 0.5 7.54116 1.65802 6.47797 3.76169C6.39382 3.92731 6.31502 4.09827 6.23755 4.27324C6.04789 4.25721 5.85956 4.24519 5.6739 4.23985C3.32047 4.16371 1.6175 4.86226 0.882891 6.20593C0.148278 7.54961 0.480856 9.35943 1.81652 11.3001C1.85391 11.3536 1.89399 11.407 1.93138 11.4604C1.89265 11.5138 1.85258 11.5673 1.81652 11.6207C0.480856 13.5614 0.148278 15.3699 0.882891 16.7149C1.58144 17.9931 3.15351 18.6863 5.33064 18.6863C5.44283 18.6863 5.5577 18.685 5.6739 18.681C5.85956 18.6757 6.04789 18.6623 6.23755 18.6476C6.31502 18.8212 6.39516 18.9935 6.47797 19.1592C7.54116 21.2628 8.96898 22.4208 10.501 22.4208C12.033 22.4208 13.4608 21.2628 14.524 19.1592C14.6081 18.9935 14.6869 18.8226 14.7644 18.6476C14.9541 18.6636 15.1424 18.6757 15.328 18.681C15.4443 18.685 15.5578 18.6863 15.6713 18.6863C17.8484 18.6863 19.4205 17.9918 20.1191 16.7149C20.8537 15.3712 20.5211 13.5614 19.1854 11.6207C19.148 11.5673 19.108 11.5138 19.0706 11.4604ZM19.7678 6.39828C20.4263 7.60304 20.1017 9.26327 18.8555 11.0731C18.8435 11.0904 18.8315 11.1065 18.8195 11.1225C18.0461 10.1181 17.0537 9.14706 15.8957 8.26018C15.694 6.95524 15.3668 5.73578 14.9274 4.65524C17.226 4.49095 19.0385 5.06262 19.7678 6.39694V6.39828ZM15.9758 8.83318C17.023 9.67198 17.9045 10.5642 18.579 11.4551C17.8885 12.3727 17.0056 13.2636 15.9758 14.089C16.0827 13.2395 16.1375 12.358 16.1375 11.4604C16.1375 10.5629 16.0827 9.68266 15.9758 8.83318ZM15.7368 11.4604C15.7368 12.4956 15.662 13.4946 15.5231 14.4403C14.751 15.0213 13.9096 15.5649 13.012 16.0551C12.1746 16.5132 11.3318 16.8992 10.5023 17.2185C9.67287 16.9006 8.83007 16.5132 7.99261 16.0551C7.08436 15.5596 6.24423 15.0146 5.48023 14.4389C5.34266 13.4933 5.26653 12.4942 5.26653 11.4604C5.26653 10.4266 5.34132 9.42755 5.48023 8.4819C6.24423 7.90757 7.08436 7.36262 7.99261 6.86576C8.8314 6.40763 9.6742 6.02027 10.5036 5.70239C11.3331 6.02027 12.1746 6.40763 13.012 6.86576C13.9203 7.36129 14.7604 7.90757 15.5244 8.4819C15.662 9.42755 15.7381 10.4266 15.7381 11.4604H15.7368ZM15.4322 7.91558C14.7377 7.41471 13.9911 6.94456 13.203 6.51448C12.4964 6.12847 11.7819 5.78922 11.066 5.49671C12.2721 5.07731 13.4408 4.8075 14.5146 4.69264C14.9087 5.64096 15.2212 6.72952 15.4309 7.91558H15.4322ZM10.501 0.902035C12.0223 0.902035 13.3927 2.21765 14.3503 4.3133C13.1229 4.45354 11.8179 4.78079 10.501 5.27498C9.18268 4.78079 7.87774 4.45354 6.65161 4.3133C7.60927 2.21765 8.97966 0.902035 10.501 0.902035ZM6.48598 4.69397C7.56119 4.80884 8.72989 5.07597 9.93733 5.49671C9.22141 5.78922 8.5055 6.12847 7.79894 6.51448C7.0109 6.94456 6.2656 7.41471 5.56972 7.91558C5.77942 6.72952 6.09197 5.64096 6.48598 4.69264V4.69397ZM1.23551 6.39828C1.8833 5.21221 3.38592 4.62719 5.3253 4.62719C5.56839 4.62719 5.81949 4.63787 6.0746 4.65657C5.63517 5.73579 5.30927 6.95524 5.10625 8.26018C3.94556 9.14973 2.95049 10.1221 2.17715 11.1292C0.953681 9.38079 0.542299 7.66448 1.23417 6.39828H1.23551ZM5.02611 14.0877C3.97628 13.2475 3.09341 12.3526 2.4189 11.4604C3.09474 10.5669 3.97761 9.67331 5.02611 8.83318C4.91925 9.68266 4.86449 10.5642 4.86449 11.4604C4.86449 12.3566 4.91925 13.2382 5.02611 14.0877ZM1.23551 16.5226C0.543635 15.2564 0.955018 13.5401 2.17848 11.7917C2.95183 12.7974 3.9469 13.7711 5.10758 14.6607C5.30927 15.9656 5.6365 17.1851 6.07594 18.2656C3.77727 18.4299 1.96478 17.8582 1.23551 16.5226ZM5.57106 15.0053C6.2656 15.5061 7.01223 15.9763 7.80027 16.4064C8.50684 16.7924 9.22275 17.1316 9.93733 17.4241C8.73123 17.8435 7.56253 18.1133 6.48865 18.2282C6.09464 17.2799 5.78209 16.1913 5.57239 15.0053H5.57106ZM10.501 22.0188C8.97966 22.0188 7.60927 20.7032 6.65161 18.6062C7.87908 18.4659 9.18402 18.1387 10.501 17.6445C11.8193 18.1387 13.1242 18.4659 14.3503 18.6062C13.3927 20.7018 12.0223 22.0188 10.501 22.0188ZM14.516 18.2282C13.4408 18.1133 12.2734 17.8435 11.0673 17.4241C11.7819 17.1316 12.4978 16.7924 13.2044 16.4064C13.9924 15.9763 14.7377 15.5061 15.4336 15.0053C15.2239 16.1913 14.9113 17.2799 14.5173 18.2282H14.516ZM19.7678 16.5226C19.0385 17.8569 17.226 18.4299 14.9274 18.2656C15.3668 17.1864 15.694 15.9656 15.8957 14.6607C17.0564 13.7711 18.0515 12.7988 18.8248 11.7917C20.0483 13.5401 20.4597 15.2564 19.7678 16.5226Z" fill="black" stroke="black"/>
<path d="M10.5009 9.79083C9.57927 9.79083 8.8313 10.5388 8.8313 11.4604C8.8313 12.382 9.57927 13.13 10.5009 13.13C11.4225 13.13 12.1704 12.382 12.1704 11.4604C12.1704 10.5388 11.4225 9.79083 10.5009 9.79083Z" fill="black"/>
</svg>
